# xmcd
#
# Track frame offsets:
#	150
#	17326
#	38315
#	54592
#	72500
#	89046
#
# Disc length: 1521 seconds
#
# Revision: 1
# Processed by: cddbd v1.4b41PL2 Copyright (c) Steve Scherf et al.
# Submitted via: audiograbber 1.80
#
DISCID=4405ef06
DTITLE=Doug Jay - Demo Sampler
DYEAR=1900
DGENRE=
TTITLE0=Knucklehead
TTITLE1=Keep Rockin' Me Baby
TTITLE2=Every Step Of The Way
TTITLE3=Baby Can I Change Your Mind?
TTITLE4=I'M All Alone
TTITLE5=Until We Meet Again
EXTD=
EXTT0=
EXTT1=
EXTT2=
EXTT3=
EXTT4=
EXTT5=
PLAYORDER=
